<?xml version="1.0" standalone="no"?>
<!DOCTYPE svg PUBLIC "-//W3C//DTD SVG 20010904//EN"
 "http://www.w3.org/TR/2001/REC-SVG-20010904/DTD/svg10.dtd">
<svg version="1.0" xmlns="http://www.w3.org/2000/svg"
 width="1024.000000pt" height="1024.000000pt" viewBox="0 0 1024.000000 1024.000000"
 preserveAspectRatio="xMidYMid meet">
<metadata>
Created by potrace 1.11, written by Peter Selinger 2001-2013
</metadata>
<g transform="translate(0.000000,1024.000000) scale(0.100000,-0.100000)"
fill="#000000" stroke="none">
<path d="M1906 10228 c-394 -34 -821 -208 -1126 -458 -443 -362 -721 -887
-769 -1455 -15 -166 -15 -6224 0 -6390 43 -504 270 -983 630 -1331 348 -336
801 -542 1284 -583 166 -15 6224 -15 6390 0 504 43 983 270 1331 630 336 348
542 801 583 1284 15 166 15 6224 0 6390 -43 504 -270 983 -630 1331 -348 336
-801 542 -1284 583 -149 13 -6263 12 -6409 -1z m840 -1484 c221 -45 533 -208
779 -407 113 -91 318 -306 393 -412 141 -199 245 -404 323 -639 41 -123 102
-362 114 -449 5 -35 10 -47 20 -43 62 23 253 79 332 96 328 71 697 78 1005 20
131 -25 274 -64 371 -102 43 -16 80 -28 82 -26 3 2 16 61 30 131 131 647 421
1129 892 1483 320 241 754 413 888 352 45 -20 80 -107 111 -273 25 -137 30
-528 10 -725 -42 -399 -153 -753 -308 -984 -150 -222 -398 -439 -672 -587 -42
-22 -76 -44 -76 -49 0 -4 7 -13 16 -21 36 -29 182 -264 245 -392 168 -343 230
-684 215 -1182 -34 -1203 -543 -2086 -1539 -2670 -426 -249 -927 -362 -1755
-395 -374 -15 -1178 12 -1337 45 -82 17 -215 64 -215 76 0 3 26 9 58 12 95 9
162 36 213 87 85 85 164 256 175 378 5 58 2 73 -18 112 -44 86 -146 113 -438
113 l-185 1 100 101 c237 238 375 523 442 910 29 169 25 596 -9 905 -87 793
-85 946 22 1272 71 217 190 432 333 603 37 44 67 82 67 86 0 3 -12 11 -27 18
-16 7 -73 42 -128 78 -285 186 -482 394 -608 640 -133 261 -213 594 -238 1001
-25 396 37 793 131 839 34 17 96 16 186 -3z"/>
<path d="M5938 4095 c-15 -9 -48 -48 -74 -88 -121 -186 -270 -300 -479 -363
-81 -24 -106 -27 -245 -28 -192 -1 -270 15 -407 86 -82 42 -104 49 -136 45
-107 -14 -138 -144 -51 -214 l34 -28 -72 -210 c-68 -199 -72 -212 -59 -243 14
-33 55 -62 88 -62 10 0 32 8 48 18 27 17 38 41 99 215 38 109 73 197 80 197 9
0 129 -26 161 -35 7 -2 5 -64 -6 -191 -18 -209 -15 -235 32 -259 42 -22 75
-18 109 13 l31 27 17 195 17 195 90 7 c50 4 98 9 107 12 14 3 23 -25 58 -173
24 -97 48 -188 56 -202 26 -52 102 -61 144 -19 35 35 34 63 -13 255 l-44 186
94 45 c52 25 98 42 102 39 3 -4 56 -73 116 -153 65 -87 122 -153 138 -160 77
-37 157 53 116 129 -6 11 -58 84 -115 161 -58 78 -103 145 -102 149 4 10 128
139 135 139 2 0 69 -49 148 -110 79 -60 156 -115 171 -120 69 -27 142 51 115
122 -6 16 -72 74 -170 148 l-161 123 0 46 c0 53 -18 84 -60 106 -36 19 -77 19
-112 0z"/>
</g>
</svg>
